<?xml version="1.0" encoding="UTF-8"?>
<svg id="Layer_1" xmlns="http://www.w3.org/2000/svg" viewBox="0 0 67.36 80">
    <path
        d="m65.76,25.92c-1.13-1.22-2.74-1.92-4.4-1.92h-11.68v-8C49.68,7.18,42.5,0,33.68,0s-16,7.18-16,16v8H6c-1.67,0-3.27.7-4.4,1.92S-.11,28.8.02,30.46l2.82,36.61c.56,7.25,6.69,12.93,13.96,12.93h33.78c7.27,0,13.4-5.68,13.96-12.93l2.82-36.61c.13-1.66-.45-3.31-1.58-4.54Zm-44.08-9.92c0-6.62,5.38-12,12-12s12,5.38,12,12v8h-24v-8Zm38.86,50.77c-.4,5.18-4.78,9.23-9.97,9.23H16.79c-5.19,0-9.57-4.06-9.97-9.23l-2.82-36.61c-.04-.56.14-1.1.53-1.51s.91-.64,1.47-.64h11.68v10c0,1.1.9,2,2,2s2-.9,2-2v-10h24v10c0,1.1.9,2,2,2s2-.9,2-2v-10h11.68c.56,0,1.08.23,1.47.64s.57.95.53,1.51l-2.82,36.61Z"
        stroke-width="0" />
</svg>