<?xml version="1.0" encoding="UTF-8"?><svg id="Layer_1" xmlns="http://www.w3.org/2000/svg" viewBox="0 0 8.04 7.02"><path d="m3.93,7C1.3,5.72.19,4,.02,2.6c-.07-.59.03-1.13.26-1.56C.51.59.88.27,1.34.11c.73-.25,1.68-.08,2.68.75C5.02.03,5.97-.15,6.7.11c.46.16.83.49,1.06.93.23.43.33.97.26,1.56-.16,1.4-1.28,3.12-3.91,4.41-.06.03-.13.03-.19,0ZM5.96.73c.12,0,.22.08.23.2,0,.12-.08.22-.2.23h-.04c-.12.01-.22-.07-.23-.19-.01-.12.07-.22.19-.23,0,0,.05,0,.05,0Zm1.34,1.6c0,.12-.1.21-.22.2-.12,0-.21-.1-.2-.22,0-.22-.01-.44-.09-.63-.06-.15-.16-.29-.3-.39-.09-.07-.12-.2-.05-.29.07-.09.2-.12.29-.05.21.15.36.35.45.58.1.25.13.53.12.81Zm-6.87.22c.15,1.26,1.17,2.83,3.58,4.03,2.41-1.2,3.43-2.77,3.58-4.03.06-.5-.02-.96-.21-1.32-.18-.35-.47-.6-.83-.73-.63-.22-1.48-.03-2.4.79-.08.07-.2.07-.28,0C2.96.48,2.11.29,1.48.51c-.36.12-.64.38-.83.73-.19.36-.27.81-.21,1.32Z" stroke-width="0"/></svg>