<?xml version="1.0" encoding="UTF-8"?><svg id="Layer_1" xmlns="http://www.w3.org/2000/svg" viewBox="0 0 61.36 61.38"><path d="m46.49,28.72c-6.61,0-12.3-4.68-13.59-11.16-1.29-6.48,2.19-12.98,8.3-15.5,6.11-2.53,13.16-.39,16.83,5.11,3.67,5.5,2.95,12.82-1.73,17.5-2.6,2.61-6.13,4.06-9.8,4.06h0Zm0-26.52c-6.05,0-11.25,4.26-12.44,10.18-1.18,5.93,1.98,11.87,7.57,14.18,5.58,2.32,12.02.37,15.39-4.66,3.36-5.03,2.7-11.73-1.57-16-1.14-1.16-2.5-2.08-4-2.71-1.34-.57-2.77-.9-4.23-.98-.24-.03-.47-.03-.71-.03h-.01Z" stroke="#000" stroke-miterlimit="10" stroke-width="2"/><path d="m15.05,28.72c-4.63,0-8.95-2.31-11.52-6.16C.95,18.71.47,13.83,2.24,9.56,4.01,5.28,7.81,2.17,12.35,1.27c4.54-.91,9.23.52,12.5,3.79,3.97,3.96,5.16,9.93,3.01,15.1-2.15,5.18-7.2,8.56-12.81,8.55h0Zm0-26.52c-5.09,0-9.68,3.04-11.67,7.72-2.36,5.58-.44,12.06,4.59,15.45,5.03,3.39,11.75,2.74,16.04-1.55,3.64-3.62,4.73-9.07,2.77-13.82-1.96-4.74-6.59-7.82-11.73-7.81v.02Z" stroke="#000" stroke-miterlimit="10" stroke-width="2"/><path d="m46.5,60.19c-4.63,0-8.96-2.31-11.53-6.16-2.57-3.85-3.06-8.73-1.29-13.01,1.77-4.28,5.56-7.39,10.1-8.29,4.54-.9,9.24.52,12.51,3.8,3.96,3.96,5.15,9.93,3.01,15.1-2.14,5.18-7.2,8.56-12.81,8.56h0Zm0-26.52h0c-5.09,0-9.68,3.04-11.67,7.72-1.83,4.31-1.13,9.28,1.81,12.92,2.95,3.64,7.66,5.36,12.26,4.46s8.33-4.25,9.7-8.73c1.37-4.48.16-9.35-3.15-12.66-2.37-2.39-5.59-3.73-8.96-3.74v.02Z" stroke="#000" stroke-miterlimit="10" stroke-width="2"/><path d="m14.87,60.38c-4.63,0-8.96-2.31-11.53-6.16-2.57-3.85-3.06-8.73-1.29-13.01,1.77-4.28,5.56-7.39,10.1-8.29,4.54-.9,9.24.52,12.51,3.8,3.96,3.96,5.15,9.93,3.01,15.1-2.14,5.18-7.2,8.56-12.81,8.56h0Zm0-26.52h0c-5.09,0-9.68,3.04-11.67,7.72-1.83,4.31-1.13,9.28,1.81,12.92,2.95,3.64,7.66,5.36,12.26,4.46s8.33-4.25,9.7-8.73c1.37-4.48.16-9.35-3.15-12.66-2.37-2.39-5.59-3.73-8.96-3.74v.02Z" stroke="#000" stroke-miterlimit="10" stroke-width="2"/></svg>