<?xml version="1.0" encoding="UTF-8"?><svg id="Layer_1" xmlns="http://www.w3.org/2000/svg" viewBox="0 0 56.8 56.82"><path d="m44.14,0c-6.04,0-11.25,4.26-12.43,10.19-1.18,5.93,1.99,11.86,7.57,14.18,5.58,2.32,12.02.37,15.38-4.66,3.36-5.02,2.7-11.72-1.57-16C50.89,1.51,47.95.19,44.84.02c-.23-.02-.47-.02-.71-.02h0Z" stroke-width="0"/><path d="m12.69,31.45C5.75,31.45.1,37.02,0,43.95c-.1,6.94,5.39,12.67,12.32,12.86,6.93.2,12.74-5.21,13.03-12.14.29-6.93-5.04-12.81-11.96-13.2-.23-.01-.47-.02-.7-.02h0Z" stroke-width="0"/><path d="m12.68,0C6.65,0,1.45,4.27.28,10.19c-1.17,5.92,2,11.84,7.58,14.15,5.57,2.3,12,.35,15.35-4.67,3.35-5.02,2.69-11.71-1.58-15.97C19.26,1.32,16.04,0,12.68,0h0Z" stroke-width="0"/><path d="m44.13,31.46c-6.04,0-11.24,4.27-12.41,10.2-1.18,5.93,2,11.85,7.58,14.16,5.58,2.31,12.02.36,15.38-4.67,3.35-5.03,2.69-11.72-1.59-15.99-2.38-2.38-5.6-3.71-8.96-3.71h0Z" stroke-width="0"/></svg>