<?xml version="1.0" encoding="UTF-8"?>
<svg xmlns="http://www.w3.org/2000/svg" id="Layer_1" data-name="Layer 1" viewBox="0 0 24 24">
  <path d="M22,14c0,.553-.448,1-1,1H6.737c.416,1.174,1.528,2,2.82,2h9.443c.552,0,1,.447,1,1s-.448,1-1,1H9.557c-2.535,0-4.67-1.898-4.966-4.415L3.215,2.884c-.059-.504-.486-.884-.993-.884H1c-.552,0-1-.447-1-1S.448,0,1,0h1.222c1.521,0,2.802,1.139,2.979,2.649l.041,.351h3.758c.552,0,1,.447,1,1s-.448,1-1,1h-3.522l.941,8h14.581c.552,0,1,.447,1,1Zm-15,6c-1.105,0-2,.895-2,2s.895,2,2,2,2-.895,2-2-.895-2-2-2Zm10,0c-1.105,0-2,.895-2,2s.895,2,2,2,2-.895,2-2-.895-2-2-2Zm2-14.414v-1.586c0-.553-.448-1-1-1s-1,.447-1,1v2c0,.266,.105,.52,.293,.707l1,1c.195,.195,.451,.293,.707,.293s.512-.098,.707-.293c.391-.391,.391-1.023,0-1.414l-.707-.707Zm5,.414c0,3.309-2.691,6-6,6s-6-2.691-6-6S14.691,0,18,0s6,2.691,6,6Zm-2,0c0-2.206-1.794-4-4-4s-4,1.794-4,4,1.794,4,4,4,4-1.794,4-4Z"/>
</svg>
