<?xml version="1.0" encoding="UTF-8"?><svg id="Layer_1" xmlns="http://www.w3.org/2000/svg" viewBox="0 0 89.96 90.02"><path d="m73.22,68.3l15.72,15.72c1,1.01,1.3,2.52.75,3.83-.54,1.31-1.82,2.17-3.24,2.17-.91,0-1.8-.36-2.45-1l-15.75-15.75c-1.38-1.38-1.38-3.62,0-5s3.62-1.38,5,0l-.03.03ZM0,37.08c0-9.83,3.9-19.26,10.85-26.21C17.8,3.91,27.22,0,37.06,0c9.83,0,19.26,3.89,26.22,10.84,6.95,6.95,10.86,16.37,10.87,26.2,0,9.83-3.89,19.26-10.84,26.22-6.95,6.96-16.37,10.87-26.2,10.88-9.83,0-19.26-3.91-26.22-10.86C3.93,56.34.01,46.91,0,37.08H0Zm7,0c0,7.96,3.16,15.59,8.79,21.22,5.63,5.62,13.26,8.79,21.21,8.79s15.59-3.16,21.22-8.79c5.62-5.62,8.79-13.26,8.79-21.22s-3.16-15.59-8.79-21.21c-5.63-5.62-13.26-8.79-21.22-8.79-7.94.04-15.54,3.21-21.15,8.83-5.61,5.62-8.77,13.23-8.79,21.17h-.06Z" stroke-width="0"/></svg>